<svg width="244" height="643" viewBox="0 0 244 643" fill="none" xmlns="http://www.w3.org/2000/svg">
<mask id="mask0_208_951" style="mask-type:alpha" maskUnits="userSpaceOnUse" x="0" y="0" width="244" height="643">
<path d="M243.931 34.8147C243.932 219.475 243.931 606.714 243.931 606.714C243.931 616.702 242.069 627.156 233.69 635.053C226.201 642.111 218.069 642.871 205.293 641.479L30.9568 622.208C9.08843 619.833 0 602.997 0 582.556C0 582.556 0.000255716 220.266 0.000255716 59.8989C0.000255716 48.0443 2.63814 38.7357 8.37925 31.0962C12.5689 25.5212 20.0172 20.9822 33.5172 19.4801C33.5172 19.4801 40.4999 18.7332 46.3189 18.0879C52.1379 17.4426 53.0689 18.7848 53.0689 22.2676C53.0689 36.6712 60.7499 39.2264 66.5689 38.7618L165.724 28.7733C171.042 28.1943 174.917 27.1473 178.293 23.6629C182.345 19.4816 183.414 13.4905 183.414 8.33006C183.414 4.84727 185.276 2.73342 188.069 2.42215L205.06 0.548133C219.89 -1.0601 226.707 0.812475 233.69 6.93642C240.843 13.2098 243.931 24.5921 243.931 34.8147Z" fill="#4975E9"/>
</mask>
<g mask="url(#mask0_208_951)">
<rect x="-36.6855" y="-36.3983" width="317.144" height="678.515" fill="#1A1A1A"/>
<g filter="url(#filter0_bii_208_951)">
<path d="M42.4317 541.827V296.894L68.1738 295.425V541.827L68.1665 542.046C65.8771 610.101 61.8199 730.706 -105.694 793.281C-205.642 830.616 -701.636 921.23 -810.726 936.425L-881.826 848.481C-702.947 835.457 -275.392 795.654 -203.084 780.478C33.9181 730.734 42.0313 607.671 42.4317 541.827Z" fill="#1E1E1E"/>
</g>
<g filter="url(#filter1_bii_208_951)">
<path d="M77.3738 541.833V238.895L103.174 237.425V541.833C103.174 634.535 77.3738 738.488 -19.2899 794.953C-178.86 888.164 -764.085 1086.8 -892.826 1116.42L-872.667 972.306C-832.591 966.331 -291.016 853.32 -167.083 821.254C95.9882 753.186 72.9019 598.685 77.3738 541.833Z" fill="#B7B7B7"/>
</g>
<g filter="url(#filter2_bii_208_951)">
<path d="M112.366 541.674V182.732L138.174 180.425V529.559C138.174 670.422 106.344 746.369 34.597 815.988C-15.4254 864.526 -820.374 1445.85 -905.826 1475.42L-877.275 1150.94C-661.448 1101.44 -102.947 853.518 -46.3081 823.101C118.004 734.857 111.161 609.845 112.366 541.674Z" fill="#FCB434"/>
</g>
<g filter="url(#filter3_bii_208_951)">
<path d="M145.449 541.329V271.895L171.174 270.425V529.201C171.174 670.204 156.425 725.773 121.611 806.32C100.866 854.317 -912.734 2525.51 -927.826 2543.42L-785.891 1452.91C-511.191 1283.26 18.0754 865.234 71.7056 794.735C145.449 697.796 144.249 609.568 145.449 541.329Z" fill="#B55B00"/>
</g>
<g filter="url(#filter4_bii_208_951)">
<path d="M179.691 541.672V335.943L205.174 333.425V529.55C205.174 741.617 202.981 875.932 164.513 1117.91C126.045 1359.89 -593.49 5885.26 -1195.83 4286.07L-1004.08 2895.7C-887.881 2657.29 74.6211 938.263 114.883 852.007C185.803 700.072 178.502 609.882 179.691 541.672Z" fill="#1E1E1E"/>
</g>
<path d="M124.596 221.425V204.025H122.196V200.425H128.796V221.425H124.596Z" fill="#1A1A1A"/>
<path d="M85.266 268.425L91.236 254.235L91.146 254.025H85.896V250.425H92.376C94.116 251.165 94.986 252.345 94.986 253.965C94.986 254.845 94.766 255.845 94.326 256.965C94.206 257.305 94.106 257.585 94.026 257.805C93.946 258.025 93.816 258.345 93.636 258.765C93.456 259.165 93.326 259.465 93.246 259.665C92.906 260.445 92.586 261.165 92.286 261.825L89.586 267.945H94.836V271.425H85.266V268.425Z" fill="#1A1A1A"/>
<path d="M158.936 293.095V293.245C161.676 294.105 163.046 295.975 163.046 298.855C163.046 300.315 162.656 301.625 161.876 302.785C161.116 303.945 160.266 304.825 159.326 305.425H152.486V301.945H157.646C157.886 301.725 158.156 301.285 158.456 300.625C158.756 299.965 158.906 299.295 158.906 298.615C158.906 297.355 158.456 296.425 157.556 295.825H155.126V292.555L158.756 288.355L158.606 288.025H152.606V284.425H159.836C161.536 285.145 162.386 286.285 162.386 287.845C162.386 289.045 161.836 290.195 160.736 291.295L158.936 293.095Z" fill="#1A1A1A"/>
<g filter="url(#filter5_di_208_951)">
<path d="M80.3898 219.639V217.065H83.5098V222.109L83.6658 222.187L90.3218 217.975C91.6912 217.125 92.8525 216.701 93.8058 216.701C95.5565 216.701 96.8392 217.281 97.6538 218.443V219.665H99.8898V222.421H97.6538V225.333H94.6378V219.821L94.4818 219.743L87.0198 224.553C85.9452 225.229 84.9572 225.567 84.0558 225.567C82.2532 225.567 81.0312 224.813 80.3898 223.305V222.395H78.1538V219.639H80.3898ZM86.4478 205.451V203.475C87.3318 202.175 88.4585 201.525 89.8278 201.525C90.6598 201.525 91.5872 201.82 92.6098 202.409C92.9218 202.582 93.4072 202.886 94.0658 203.319L98.1738 205.997V210.027L89.8278 204.749L89.5938 204.827V210.833H79.9738V202.305H83.0938V207.375H86.7858C86.5605 206.855 86.4478 206.214 86.4478 205.451ZM98.1738 200.731H94.3258V196.987H95.8598C97.1598 196.987 98.2085 197.134 99.0058 197.429C99.8032 197.723 100.817 198.313 102.048 199.197L101.32 200.705C100.037 199.873 98.9885 199.37 98.1738 199.197V200.731ZM98.1738 193.616H83.0938V195.696H79.9738V189.976H98.1738V193.616ZM88.2418 183.602V181.184C87.3752 180.768 86.6212 180.56 85.9798 180.56C85.3212 180.56 84.7318 180.638 84.2118 180.794C83.6918 180.933 83.3192 181.097 83.0938 181.288V183.576C83.8392 184.044 84.7318 184.278 85.7718 184.278C86.7945 184.278 87.6178 184.053 88.2418 183.602ZM91.2578 183.42V184.772C90.7552 185.76 90.0185 186.531 89.0478 187.086C88.0598 187.623 87.0545 187.892 86.0318 187.892C83.4665 187.892 81.4472 186.861 79.9738 184.798V179.988C81.3778 178.012 83.3972 177.024 86.0318 177.024C88.0252 177.024 90.6858 177.83 94.0138 179.442L98.1738 181.314V184.928L90.6598 181.548C91.0585 182.189 91.2578 182.813 91.2578 183.42ZM87.4878 170.908H87.6178C88.3632 168.533 89.9838 167.346 92.4798 167.346C93.7452 167.346 94.8805 167.684 95.8858 168.36C96.8912 169.018 97.6538 169.755 98.1738 170.57V176.498H95.1578V172.026C94.9672 171.818 94.5858 171.584 94.0138 171.324C93.4418 171.064 92.8612 170.934 92.2718 170.934C91.1798 170.934 90.3738 171.324 89.8538 172.104V174.21H87.0198L83.3798 171.064L83.0938 171.194V176.394H79.9738V170.128C80.5978 168.654 81.5858 167.918 82.9378 167.918C83.9778 167.918 84.9745 168.394 85.9278 169.348L87.4878 170.908Z" fill="white"/>
</g>
<g filter="url(#filter6_di_208_951)">
<path d="M151.126 255.683V253.505H153.766V257.773L153.898 257.839L159.53 254.275C160.688 253.556 161.671 253.197 162.478 253.197C163.959 253.197 165.044 253.688 165.734 254.671V255.705H167.626V258.037H165.734V260.501H163.182V255.837L163.05 255.771L156.736 259.841C155.826 260.413 154.99 260.699 154.228 260.699C152.702 260.699 151.668 260.061 151.126 258.785V258.015H149.234V255.683H151.126ZM150.774 242.248L160.234 245.79V242.534H156.23V239.674H166.174V242.534H162.984V246.604C162.324 247.88 161.304 248.518 159.926 248.518C159.295 248.518 158.1 248.166 156.34 247.462L150.774 245.262V242.248ZM166.174 237.814H162.918V234.646H164.216C165.316 234.646 166.203 234.771 166.878 235.02C167.552 235.27 168.41 235.768 169.452 236.516L168.836 237.792C167.75 237.088 166.863 236.663 166.174 236.516V237.814ZM166.174 226.25V230.452C165.191 231.435 164.032 232.146 162.698 232.586C161.363 233.012 160.028 233.224 158.694 233.224C155.276 233.224 152.636 232.3 150.774 230.452V226.25C151.756 225.282 152.915 224.578 154.25 224.138C155.57 223.698 156.89 223.478 158.21 223.478C161.671 223.478 164.326 224.402 166.174 226.25ZM153.414 227.394V229.286C154.734 229.932 156.413 230.254 158.452 230.254C160.49 230.254 162.214 229.939 163.622 229.308V227.372C162.008 226.742 160.234 226.426 158.298 226.426C156.362 226.426 154.734 226.749 153.414 227.394ZM157.77 218.745V216.699C157.036 216.347 156.398 216.171 155.856 216.171C155.298 216.171 154.8 216.237 154.36 216.369C153.92 216.486 153.604 216.625 153.414 216.787V218.723C154.044 219.119 154.8 219.317 155.68 219.317C156.545 219.317 157.242 219.126 157.77 218.745ZM160.322 218.591V219.735C159.896 220.571 159.273 221.223 158.452 221.693C157.616 222.147 156.765 222.375 155.9 222.375C153.729 222.375 152.02 221.502 150.774 219.757V215.687C151.962 214.015 153.67 213.179 155.9 213.179C157.586 213.179 159.838 213.861 162.654 215.225L166.174 216.809V219.867L159.816 217.007C160.153 217.549 160.322 218.077 160.322 218.591ZM166.174 205.22V209.268C165.836 210.06 165.279 210.727 164.502 211.27C163.724 211.812 162.837 212.084 161.84 212.084C160.226 212.084 159.009 211.46 158.188 210.214H158.1C157.249 211.211 156.186 211.71 154.91 211.71C153.942 211.71 153.091 211.438 152.358 210.896C151.61 210.338 151.082 209.678 150.774 208.916V205.594C151.082 204.831 151.595 204.186 152.314 203.658C153.032 203.115 153.876 202.844 154.844 202.844C156.12 202.844 157.19 203.35 158.056 204.362H158.144C158.98 203.1 160.182 202.47 161.752 202.47C162.734 202.47 163.636 202.748 164.458 203.306C165.264 203.848 165.836 204.486 166.174 205.22ZM159.618 208.256C160.043 208.769 160.666 209.026 161.488 209.026C161.942 209.026 162.375 208.945 162.786 208.784C163.196 208.608 163.475 208.417 163.622 208.212V206.342C163.475 206.136 163.196 205.953 162.786 205.792C162.375 205.616 161.942 205.528 161.488 205.528C160.666 205.528 160.043 205.784 159.618 206.298V208.256ZM153.414 208.124C153.56 208.329 153.802 208.512 154.14 208.674C154.462 208.835 154.822 208.916 155.218 208.916C155.951 208.916 156.56 208.659 157.044 208.146V206.408C156.56 205.894 155.951 205.638 155.218 205.638C154.822 205.638 154.462 205.718 154.14 205.88C153.802 206.041 153.56 206.224 153.414 206.43V208.124Z" fill="white"/>
</g>
<g filter="url(#filter7_di_208_951)">
<path d="M48.8618 282.727V280.945H51.0218V284.437L51.1298 284.491L55.7378 281.575C56.6858 280.987 57.4898 280.693 58.1498 280.693C59.3618 280.693 60.2498 281.095 60.8138 281.899V282.745H62.3618V284.653H60.8138V286.669H58.7258V282.853L58.6178 282.799L53.4518 286.129C52.7078 286.597 52.0238 286.831 51.3998 286.831C50.1518 286.831 49.3058 286.309 48.8618 285.265V284.635H47.3138V282.727H48.8618ZM59.3738 277.08L50.8598 273.498L50.7338 273.552V276.702H48.5738V272.814C49.0178 271.77 49.7258 271.248 50.6978 271.248C51.2258 271.248 51.8258 271.38 52.4978 271.644C52.7018 271.716 52.8698 271.776 53.0018 271.824C53.1338 271.872 53.3258 271.95 53.5778 272.058C53.8178 272.166 53.9978 272.244 54.1178 272.292C54.5858 272.496 55.0178 272.688 55.4138 272.868L59.0858 274.488V271.338H61.1738V277.08H59.3738ZM61.1738 270.111H58.5098V267.519H59.5718C60.4718 267.519 61.1978 267.621 61.7498 267.825C62.3018 268.029 63.0038 268.437 63.8558 269.049L63.3518 270.093C62.4638 269.517 61.7378 269.169 61.1738 269.049V270.111ZM54.2978 263.386V261.712C53.6978 261.424 53.1758 261.28 52.7318 261.28C52.2758 261.28 51.8678 261.334 51.5078 261.442C51.1478 261.538 50.8898 261.652 50.7338 261.784V263.368C51.2498 263.692 51.8678 263.854 52.5878 263.854C53.2958 263.854 53.8658 263.698 54.2978 263.386ZM56.3858 263.26V264.196C56.0378 264.88 55.5278 265.414 54.8558 265.798C54.1718 266.17 53.4758 266.356 52.7678 266.356C50.9918 266.356 49.5938 265.642 48.5738 264.214V260.884C49.5458 259.516 50.9438 258.832 52.7678 258.832C54.1478 258.832 55.9898 259.39 58.2938 260.506L61.1738 261.802V264.304L55.9718 261.964C56.2478 262.408 56.3858 262.84 56.3858 263.26ZM48.5738 252.68L56.3138 255.578V252.914H53.0378V250.574H61.1738V252.914H58.5638V256.244C58.0238 257.288 57.1898 257.81 56.0618 257.81C55.5458 257.81 54.5678 257.522 53.1278 256.946L48.5738 255.146V252.68ZM53.0558 245.412V244.044C53.6678 243.144 54.4478 242.694 55.3958 242.694C55.9718 242.694 56.6138 242.898 57.3218 243.306C57.5378 243.426 57.8738 243.636 58.3298 243.936L61.1738 245.79V248.58L55.3958 244.926L55.2338 244.98V249.138H48.5738V243.234H50.7338V246.744H53.2898C53.1338 246.384 53.0558 245.94 53.0558 245.412Z" fill="white"/>
</g>
<g filter="url(#filter8_di_208_951)">
<path d="M187.862 320.727V318.945H190.022V322.437L190.13 322.491L194.738 319.575C195.686 318.987 196.49 318.693 197.15 318.693C198.362 318.693 199.25 319.095 199.814 319.899V320.745H201.362V322.653H199.814V324.669H197.726V320.853L197.618 320.799L192.452 324.129C191.708 324.597 191.024 324.831 190.4 324.831C189.152 324.831 188.306 324.309 187.862 323.265V322.635H186.314V320.727H187.862ZM200.174 313.82H189.734V315.26H187.574V311.3H200.174V313.82ZM200.174 309.588H197.51V306.996H198.572C199.472 306.996 200.198 307.098 200.75 307.302C201.302 307.506 202.004 307.914 202.856 308.526L202.352 309.57C201.464 308.994 200.738 308.646 200.174 308.526V309.588ZM200.174 300.126V303.564C199.37 304.368 198.422 304.95 197.33 305.31C196.238 305.658 195.146 305.832 194.054 305.832C191.258 305.832 189.098 305.076 187.574 303.564V300.126C188.378 299.334 189.326 298.758 190.418 298.398C191.498 298.038 192.578 297.858 193.658 297.858C196.49 297.858 198.662 298.614 200.174 300.126ZM189.734 301.062V302.61C190.814 303.138 192.188 303.402 193.856 303.402C195.524 303.402 196.934 303.144 198.086 302.628V301.044C196.766 300.528 195.314 300.27 193.73 300.27C192.146 300.27 190.814 300.534 189.734 301.062ZM194.45 292.257V293.931C195.05 294.219 195.578 294.363 196.034 294.363C196.478 294.363 196.892 294.309 197.276 294.201C197.66 294.093 197.93 293.973 198.086 293.841V292.275C197.522 291.951 196.886 291.789 196.178 291.789C195.458 291.789 194.882 291.945 194.45 292.257ZM192.362 292.383V291.447C192.71 290.763 193.226 290.235 193.91 289.863C194.582 289.479 195.272 289.287 195.98 289.287C197.672 289.287 199.07 289.959 200.174 291.303V294.759C199.202 296.127 197.804 296.811 195.98 296.811C195.368 296.811 194.708 296.721 194 296.541C193.292 296.349 192.704 296.157 192.236 295.965C191.768 295.761 191.174 295.485 190.454 295.137L187.574 293.841V291.339L192.776 293.679C192.5 293.235 192.362 292.803 192.362 292.383ZM198.374 288.555L189.86 284.973L189.734 285.027V288.177H187.574V284.289C188.018 283.245 188.726 282.723 189.698 282.723C190.226 282.723 190.826 282.855 191.498 283.119C191.702 283.191 191.87 283.251 192.002 283.299C192.134 283.347 192.326 283.425 192.578 283.533C192.818 283.641 192.998 283.719 193.118 283.767C193.586 283.971 194.018 284.163 194.414 284.343L198.086 285.963V282.813H200.174V288.555H198.374Z" fill="white"/>
</g>
<g filter="url(#filter9_di_208_951)">
<path d="M115.654 161.595V158.625H119.254V164.445L119.434 164.535L127.114 159.675C128.694 158.695 130.034 158.205 131.134 158.205C133.154 158.205 134.634 158.875 135.574 160.215V161.625H138.154V164.805H135.574V168.165H132.094V161.805L131.914 161.715L123.304 167.265C122.064 168.045 120.924 168.435 119.884 168.435C117.804 168.435 116.394 167.565 115.654 165.825V164.775H113.074V161.595H115.654ZM136.174 142.674V148.194C135.714 149.274 134.954 150.184 133.894 150.924C132.834 151.664 131.624 152.034 130.264 152.034C128.064 152.034 126.404 151.184 125.284 149.484H125.164C124.004 150.844 122.554 151.524 120.814 151.524C119.494 151.524 118.334 151.154 117.334 150.414C116.314 149.654 115.594 148.754 115.174 147.714V143.184C115.594 142.144 116.294 141.264 117.274 140.544C118.254 139.804 119.404 139.434 120.724 139.434C122.464 139.434 123.924 140.124 125.104 141.504H125.224C126.364 139.784 128.004 138.924 130.144 138.924C131.484 138.924 132.714 139.304 133.834 140.064C134.934 140.804 135.714 141.674 136.174 142.674ZM127.234 146.814C127.814 147.514 128.664 147.864 129.784 147.864C130.404 147.864 130.994 147.754 131.554 147.534C132.114 147.294 132.494 147.034 132.694 146.754V144.204C132.494 143.924 132.114 143.674 131.554 143.454C130.994 143.214 130.404 143.094 129.784 143.094C128.664 143.094 127.814 143.444 127.234 144.144V146.814ZM118.774 146.634C118.974 146.914 119.304 147.164 119.764 147.384C120.204 147.604 120.694 147.714 121.234 147.714C122.234 147.714 123.064 147.364 123.724 146.664V144.294C123.064 143.594 122.234 143.244 121.234 143.244C120.694 143.244 120.204 143.354 119.764 143.574C119.304 143.794 118.974 144.044 118.774 144.324V146.634ZM136.174 136.965H131.734V132.645H133.504C135.004 132.645 136.214 132.815 137.134 133.155C138.054 133.495 139.224 134.175 140.644 135.195L139.804 136.935C138.324 135.975 137.114 135.395 136.174 135.195V136.965ZM133.174 130.856L118.984 124.886L118.774 124.976V130.226H115.174V123.746C115.914 122.006 117.094 121.136 118.714 121.136C119.594 121.136 120.594 121.356 121.714 121.796C122.054 121.916 122.334 122.016 122.554 122.096C122.774 122.176 123.094 122.306 123.514 122.486C123.914 122.666 124.214 122.796 124.414 122.876C125.194 123.216 125.914 123.536 126.574 123.836L132.694 126.536V121.286H136.174V130.856H133.174ZM136.174 119.87L118.774 113.84V120.14H115.174V109.43H117.964L136.174 115.64V119.87ZM126.634 101.607V104.397C127.634 104.877 128.514 105.117 129.274 105.117C130.014 105.117 130.704 105.027 131.344 104.847C131.984 104.667 132.434 104.467 132.694 104.247V101.637C131.754 101.097 130.694 100.827 129.514 100.827C128.314 100.827 127.354 101.087 126.634 101.607ZM123.154 101.817V100.257C123.734 99.1165 124.594 98.2365 125.734 97.6165C126.854 96.9765 128.004 96.6565 129.184 96.6565C132.004 96.6565 134.334 97.7765 136.174 100.017V105.777C134.554 108.057 132.224 109.197 129.184 109.197C128.164 109.197 127.064 109.047 125.884 108.747C124.704 108.427 123.724 108.107 122.944 107.787C122.164 107.447 121.174 106.987 119.974 106.407L115.174 104.247V100.077L123.844 103.977C123.384 103.237 123.154 102.517 123.154 101.817Z" fill="#11F167"/>
</g>
</g>
<defs>
<filter id="filter0_bii_208_951" x="-888.826" y="288.425" width="964" height="669" filterUnits="userSpaceOnUse" color-interpolation-filters="sRGB">
<feFlood flood-opacity="0" result="BackgroundImageFix"/>
<feGaussianBlur in="BackgroundImageFix" stdDeviation="3.5"/>
<feComposite in2="SourceAlpha" operator="in" result="effect1_backgroundBlur_208_951"/>
<feBlend mode="normal" in="SourceGraphic" in2="effect1_backgroundBlur_208_951" result="shape"/>
<feColorMatrix in="SourceAlpha" type="matrix" values="0 0 0 0 0 0 0 0 0 0 0 0 0 0 0 0 0 0 127 0" result="hardAlpha"/>
<feMorphology radius="4" operator="dilate" in="SourceAlpha" result="effect2_innerShadow_208_951"/>
<feOffset dy="7"/>
<feGaussianBlur stdDeviation="5.5"/>
<feComposite in2="hardAlpha" operator="arithmetic" k2="-1" k3="1"/>
<feColorMatrix type="matrix" values="0 0 0 0 1 0 0 0 0 1 0 0 0 0 1 0 0 0 1 0"/>
<feBlend mode="normal" in2="shape" result="effect2_innerShadow_208_951"/>
<feColorMatrix in="SourceAlpha" type="matrix" values="0 0 0 0 0 0 0 0 0 0 0 0 0 0 0 0 0 0 127 0" result="hardAlpha"/>
<feMorphology radius="35" operator="dilate" in="SourceAlpha" result="effect3_innerShadow_208_951"/>
<feOffset dy="39"/>
<feGaussianBlur stdDeviation="28"/>
<feComposite in2="hardAlpha" operator="arithmetic" k2="-1" k3="1"/>
<feColorMatrix type="matrix" values="0 0 0 0 1 0 0 0 0 1 0 0 0 0 1 0 0 0 0.5 0"/>
<feBlend mode="normal" in2="effect2_innerShadow_208_951" result="effect3_innerShadow_208_951"/>
</filter>
<filter id="filter1_bii_208_951" x="-899.826" y="230.425" width="1010" height="907" filterUnits="userSpaceOnUse" color-interpolation-filters="sRGB">
<feFlood flood-opacity="0" result="BackgroundImageFix"/>
<feGaussianBlur in="BackgroundImageFix" stdDeviation="3.5"/>
<feComposite in2="SourceAlpha" operator="in" result="effect1_backgroundBlur_208_951"/>
<feBlend mode="normal" in="SourceGraphic" in2="effect1_backgroundBlur_208_951" result="shape"/>
<feColorMatrix in="SourceAlpha" type="matrix" values="0 0 0 0 0 0 0 0 0 0 0 0 0 0 0 0 0 0 127 0" result="hardAlpha"/>
<feMorphology radius="4" operator="dilate" in="SourceAlpha" result="effect2_innerShadow_208_951"/>
<feOffset dy="7"/>
<feGaussianBlur stdDeviation="5.5"/>
<feComposite in2="hardAlpha" operator="arithmetic" k2="-1" k3="1"/>
<feColorMatrix type="matrix" values="0 0 0 0 1 0 0 0 0 1 0 0 0 0 1 0 0 0 1 0"/>
<feBlend mode="normal" in2="shape" result="effect2_innerShadow_208_951"/>
<feColorMatrix in="SourceAlpha" type="matrix" values="0 0 0 0 0 0 0 0 0 0 0 0 0 0 0 0 0 0 127 0" result="hardAlpha"/>
<feMorphology radius="35" operator="dilate" in="SourceAlpha" result="effect3_innerShadow_208_951"/>
<feOffset dy="39"/>
<feGaussianBlur stdDeviation="28"/>
<feComposite in2="hardAlpha" operator="arithmetic" k2="-1" k3="1"/>
<feColorMatrix type="matrix" values="0 0 0 0 1 0 0 0 0 1 0 0 0 0 1 0 0 0 0.5 0"/>
<feBlend mode="normal" in2="effect2_innerShadow_208_951" result="effect3_innerShadow_208_951"/>
</filter>
<filter id="filter2_bii_208_951" x="-912.826" y="173.425" width="1058" height="1323" filterUnits="userSpaceOnUse" color-interpolation-filters="sRGB">
<feFlood flood-opacity="0" result="BackgroundImageFix"/>
<feGaussianBlur in="BackgroundImageFix" stdDeviation="3.5"/>
<feComposite in2="SourceAlpha" operator="in" result="effect1_backgroundBlur_208_951"/>
<feBlend mode="normal" in="SourceGraphic" in2="effect1_backgroundBlur_208_951" result="shape"/>
<feColorMatrix in="SourceAlpha" type="matrix" values="0 0 0 0 0 0 0 0 0 0 0 0 0 0 0 0 0 0 127 0" result="hardAlpha"/>
<feMorphology radius="4" operator="dilate" in="SourceAlpha" result="effect2_innerShadow_208_951"/>
<feOffset dy="7"/>
<feGaussianBlur stdDeviation="5.5"/>
<feComposite in2="hardAlpha" operator="arithmetic" k2="-1" k3="1"/>
<feColorMatrix type="matrix" values="0 0 0 0 1 0 0 0 0 1 0 0 0 0 1 0 0 0 1 0"/>
<feBlend mode="normal" in2="shape" result="effect2_innerShadow_208_951"/>
<feColorMatrix in="SourceAlpha" type="matrix" values="0 0 0 0 0 0 0 0 0 0 0 0 0 0 0 0 0 0 127 0" result="hardAlpha"/>
<feMorphology radius="35" operator="dilate" in="SourceAlpha" result="effect3_innerShadow_208_951"/>
<feOffset dy="39"/>
<feGaussianBlur stdDeviation="28"/>
<feComposite in2="hardAlpha" operator="arithmetic" k2="-1" k3="1"/>
<feColorMatrix type="matrix" values="0 0 0 0 1 0 0 0 0 1 0 0 0 0 1 0 0 0 0.5 0"/>
<feBlend mode="normal" in2="effect2_innerShadow_208_951" result="effect3_innerShadow_208_951"/>
</filter>
<filter id="filter3_bii_208_951" x="-934.826" y="263.425" width="1113" height="2301" filterUnits="userSpaceOnUse" color-interpolation-filters="sRGB">
<feFlood flood-opacity="0" result="BackgroundImageFix"/>
<feGaussianBlur in="BackgroundImageFix" stdDeviation="3.5"/>
<feComposite in2="SourceAlpha" operator="in" result="effect1_backgroundBlur_208_951"/>
<feBlend mode="normal" in="SourceGraphic" in2="effect1_backgroundBlur_208_951" result="shape"/>
<feColorMatrix in="SourceAlpha" type="matrix" values="0 0 0 0 0 0 0 0 0 0 0 0 0 0 0 0 0 0 127 0" result="hardAlpha"/>
<feMorphology radius="4" operator="dilate" in="SourceAlpha" result="effect2_innerShadow_208_951"/>
<feOffset dy="7"/>
<feGaussianBlur stdDeviation="5.5"/>
<feComposite in2="hardAlpha" operator="arithmetic" k2="-1" k3="1"/>
<feColorMatrix type="matrix" values="0 0 0 0 1 0 0 0 0 1 0 0 0 0 1 0 0 0 1 0"/>
<feBlend mode="normal" in2="shape" result="effect2_innerShadow_208_951"/>
<feColorMatrix in="SourceAlpha" type="matrix" values="0 0 0 0 0 0 0 0 0 0 0 0 0 0 0 0 0 0 127 0" result="hardAlpha"/>
<feMorphology radius="35" operator="dilate" in="SourceAlpha" result="effect3_innerShadow_208_951"/>
<feOffset dy="39"/>
<feGaussianBlur stdDeviation="28"/>
<feComposite in2="hardAlpha" operator="arithmetic" k2="-1" k3="1"/>
<feColorMatrix type="matrix" values="0 0 0 0 1 0 0 0 0 1 0 0 0 0 1 0 0 0 0.5 0"/>
<feBlend mode="normal" in2="effect2_innerShadow_208_951" result="effect3_innerShadow_208_951"/>
</filter>
<filter id="filter4_bii_208_951" x="-1202.83" y="326.425" width="1415" height="4322" filterUnits="userSpaceOnUse" color-interpolation-filters="sRGB">
<feFlood flood-opacity="0" result="BackgroundImageFix"/>
<feGaussianBlur in="BackgroundImageFix" stdDeviation="3.5"/>
<feComposite in2="SourceAlpha" operator="in" result="effect1_backgroundBlur_208_951"/>
<feBlend mode="normal" in="SourceGraphic" in2="effect1_backgroundBlur_208_951" result="shape"/>
<feColorMatrix in="SourceAlpha" type="matrix" values="0 0 0 0 0 0 0 0 0 0 0 0 0 0 0 0 0 0 127 0" result="hardAlpha"/>
<feMorphology radius="4" operator="dilate" in="SourceAlpha" result="effect2_innerShadow_208_951"/>
<feOffset dy="7"/>
<feGaussianBlur stdDeviation="5.5"/>
<feComposite in2="hardAlpha" operator="arithmetic" k2="-1" k3="1"/>
<feColorMatrix type="matrix" values="0 0 0 0 1 0 0 0 0 1 0 0 0 0 1 0 0 0 1 0"/>
<feBlend mode="normal" in2="shape" result="effect2_innerShadow_208_951"/>
<feColorMatrix in="SourceAlpha" type="matrix" values="0 0 0 0 0 0 0 0 0 0 0 0 0 0 0 0 0 0 127 0" result="hardAlpha"/>
<feMorphology radius="35" operator="dilate" in="SourceAlpha" result="effect3_innerShadow_208_951"/>
<feOffset dy="39"/>
<feGaussianBlur stdDeviation="28"/>
<feComposite in2="hardAlpha" operator="arithmetic" k2="-1" k3="1"/>
<feColorMatrix type="matrix" values="0 0 0 0 1 0 0 0 0 1 0 0 0 0 1 0 0 0 0.5 0"/>
<feBlend mode="normal" in2="effect2_innerShadow_208_951" result="effect3_innerShadow_208_951"/>
</filter>
<filter id="filter5_di_208_951" x="58.1543" y="147.346" width="63.8926" height="98.2211" filterUnits="userSpaceOnUse" color-interpolation-filters="sRGB">
<feFlood flood-opacity="0" result="BackgroundImageFix"/>
<feColorMatrix in="SourceAlpha" type="matrix" values="0 0 0 0 0 0 0 0 0 0 0 0 0 0 0 0 0 0 127 0" result="hardAlpha"/>
<feOffset/>
<feGaussianBlur stdDeviation="10"/>
<feComposite in2="hardAlpha" operator="out"/>
<feColorMatrix type="matrix" values="0 0 0 0 1 0 0 0 0 1 0 0 0 0 1 0 0 0 0.75 0"/>
<feBlend mode="normal" in2="BackgroundImageFix" result="effect1_dropShadow_208_951"/>
<feBlend mode="normal" in="SourceGraphic" in2="effect1_dropShadow_208_951" result="shape"/>
<feColorMatrix in="SourceAlpha" type="matrix" values="0 0 0 0 0 0 0 0 0 0 0 0 0 0 0 0 0 0 127 0" result="hardAlpha"/>
<feOffset dy="2"/>
<feGaussianBlur stdDeviation="2"/>
<feComposite in2="hardAlpha" operator="arithmetic" k2="-1" k3="1"/>
<feColorMatrix type="matrix" values="0 0 0 0 0.717647 0 0 0 0 0.717647 0 0 0 0 0.717647 0 0 0 0.5 0"/>
<feBlend mode="normal" in2="shape" result="effect2_innerShadow_208_951"/>
</filter>
<filter id="filter6_di_208_951" x="129.234" y="182.47" width="60.2168" height="98.229" filterUnits="userSpaceOnUse" color-interpolation-filters="sRGB">
<feFlood flood-opacity="0" result="BackgroundImageFix"/>
<feColorMatrix in="SourceAlpha" type="matrix" values="0 0 0 0 0 0 0 0 0 0 0 0 0 0 0 0 0 0 127 0" result="hardAlpha"/>
<feOffset/>
<feGaussianBlur stdDeviation="10"/>
<feComposite in2="hardAlpha" operator="out"/>
<feColorMatrix type="matrix" values="0 0 0 0 1 0 0 0 0 1 0 0 0 0 1 0 0 0 0.75 0"/>
<feBlend mode="normal" in2="BackgroundImageFix" result="effect1_dropShadow_208_951"/>
<feBlend mode="normal" in="SourceGraphic" in2="effect1_dropShadow_208_951" result="shape"/>
<feColorMatrix in="SourceAlpha" type="matrix" values="0 0 0 0 0 0 0 0 0 0 0 0 0 0 0 0 0 0 127 0" result="hardAlpha"/>
<feOffset dy="2"/>
<feGaussianBlur stdDeviation="2"/>
<feComposite in2="hardAlpha" operator="arithmetic" k2="-1" k3="1"/>
<feColorMatrix type="matrix" values="0 0 0 0 0.709804 0 0 0 0 0.356863 0 0 0 0 0 0 0 0 0.5 0"/>
<feBlend mode="normal" in2="shape" result="effect2_innerShadow_208_951"/>
</filter>
<filter id="filter7_di_208_951" x="27.3145" y="222.694" width="56.541" height="84.1366" filterUnits="userSpaceOnUse" color-interpolation-filters="sRGB">
<feFlood flood-opacity="0" result="BackgroundImageFix"/>
<feColorMatrix in="SourceAlpha" type="matrix" values="0 0 0 0 0 0 0 0 0 0 0 0 0 0 0 0 0 0 127 0" result="hardAlpha"/>
<feOffset/>
<feGaussianBlur stdDeviation="10"/>
<feComposite in2="hardAlpha" operator="out"/>
<feColorMatrix type="matrix" values="0 0 0 0 1 0 0 0 0 1 0 0 0 0 1 0 0 0 0.75 0"/>
<feBlend mode="normal" in2="BackgroundImageFix" result="effect1_dropShadow_208_951"/>
<feBlend mode="normal" in="SourceGraphic" in2="effect1_dropShadow_208_951" result="shape"/>
<feColorMatrix in="SourceAlpha" type="matrix" values="0 0 0 0 0 0 0 0 0 0 0 0 0 0 0 0 0 0 127 0" result="hardAlpha"/>
<feOffset dy="2"/>
<feGaussianBlur stdDeviation="2"/>
<feComposite in2="hardAlpha" operator="arithmetic" k2="-1" k3="1"/>
<feColorMatrix type="matrix" values="0 0 0 0 0.549105 0 0 0 0 0.549105 0 0 0 0 0.549105 0 0 0 0.5 0"/>
<feBlend mode="normal" in2="shape" result="effect2_innerShadow_208_951"/>
</filter>
<filter id="filter8_di_208_951" x="166.314" y="262.723" width="56.541" height="82.1077" filterUnits="userSpaceOnUse" color-interpolation-filters="sRGB">
<feFlood flood-opacity="0" result="BackgroundImageFix"/>
<feColorMatrix in="SourceAlpha" type="matrix" values="0 0 0 0 0 0 0 0 0 0 0 0 0 0 0 0 0 0 127 0" result="hardAlpha"/>
<feOffset/>
<feGaussianBlur stdDeviation="10"/>
<feComposite in2="hardAlpha" operator="out"/>
<feColorMatrix type="matrix" values="0 0 0 0 1 0 0 0 0 1 0 0 0 0 1 0 0 0 0.75 0"/>
<feBlend mode="normal" in2="BackgroundImageFix" result="effect1_dropShadow_208_951"/>
<feBlend mode="normal" in="SourceGraphic" in2="effect1_dropShadow_208_951" result="shape"/>
<feColorMatrix in="SourceAlpha" type="matrix" values="0 0 0 0 0 0 0 0 0 0 0 0 0 0 0 0 0 0 127 0" result="hardAlpha"/>
<feOffset dy="2"/>
<feGaussianBlur stdDeviation="2"/>
<feComposite in2="hardAlpha" operator="arithmetic" k2="-1" k3="1"/>
<feColorMatrix type="matrix" values="0 0 0 0 0.554362 0 0 0 0 0.554362 0 0 0 0 0.554362 0 0 0 0.5 0"/>
<feBlend mode="normal" in2="shape" result="effect2_innerShadow_208_951"/>
</filter>
<filter id="filter9_di_208_951" x="93.0742" y="76.6565" width="67.5703" height="111.778" filterUnits="userSpaceOnUse" color-interpolation-filters="sRGB">
<feFlood flood-opacity="0" result="BackgroundImageFix"/>
<feColorMatrix in="SourceAlpha" type="matrix" values="0 0 0 0 0 0 0 0 0 0 0 0 0 0 0 0 0 0 127 0" result="hardAlpha"/>
<feOffset/>
<feGaussianBlur stdDeviation="10"/>
<feComposite in2="hardAlpha" operator="out"/>
<feColorMatrix type="matrix" values="0 0 0 0 1 0 0 0 0 1 0 0 0 0 1 0 0 0 0.75 0"/>
<feBlend mode="normal" in2="BackgroundImageFix" result="effect1_dropShadow_208_951"/>
<feBlend mode="normal" in="SourceGraphic" in2="effect1_dropShadow_208_951" result="shape"/>
<feColorMatrix in="SourceAlpha" type="matrix" values="0 0 0 0 0 0 0 0 0 0 0 0 0 0 0 0 0 0 127 0" result="hardAlpha"/>
<feOffset dy="2"/>
<feGaussianBlur stdDeviation="2"/>
<feComposite in2="hardAlpha" operator="arithmetic" k2="-1" k3="1"/>
<feColorMatrix type="matrix" values="0 0 0 0 0.988235 0 0 0 0 0.705882 0 0 0 0 0.203922 0 0 0 0.5 0"/>
<feBlend mode="normal" in2="shape" result="effect2_innerShadow_208_951"/>
</filter>
</defs>
</svg>
